<?xml version="1.0" encoding="UTF-8" standalone="no"?>
<!DOCTYPE svg PUBLIC "-//W3C//DTD SVG 1.1//EN" "http://www.w3.org/Graphics/SVG/1.1/DTD/svg11.dtd">
<svg width="100%" height="100%" viewBox="0 0 512 512" version="1.1" xmlns="http://www.w3.org/2000/svg" xmlns:xlink="http://www.w3.org/1999/xlink" xml:space="preserve" xmlns:serif="http://www.serif.com/" style="fill-rule:evenodd;clip-rule:evenodd;stroke-linejoin:round;stroke-miterlimit:2;">
    <g transform="matrix(1.31055,0,0,1.31055,-1608.41,-494.89)">
        <path d="M1343.47,666.331C1329.79,666.331 1317.28,664.039 1305.93,659.454C1294.59,654.869 1284.83,648.38 1276.67,639.987C1268.51,631.594 1262.14,621.724 1257.55,610.378C1252.97,599.032 1250.68,586.52 1250.68,572.842C1250.68,559.32 1252.97,546.886 1257.55,535.54C1262.14,524.194 1268.51,514.324 1276.67,505.931C1284.83,497.538 1294.59,491.049 1305.93,486.464C1317.28,481.879 1329.79,479.586 1343.47,479.586C1356.99,479.586 1369.42,481.879 1380.77,486.464C1392.12,491.049 1401.91,497.538 1410.14,505.931C1418.38,514.324 1424.79,524.194 1429.38,535.54C1433.96,546.886 1436.26,559.32 1436.26,572.842C1436.26,586.52 1433.96,599.032 1429.38,610.378C1424.79,621.724 1418.38,631.594 1410.14,639.987C1401.91,648.38 1392.12,654.869 1380.77,659.454C1369.42,664.039 1356.99,666.331 1343.47,666.331ZM1343.47,646.281C1353.88,646.281 1363.44,644.416 1372.14,640.686C1380.85,636.956 1388.42,631.788 1394.87,625.182C1401.32,618.577 1406.3,610.805 1409.79,601.868C1413.29,592.931 1415.04,583.256 1415.04,572.842C1415.04,562.429 1413.29,552.792 1409.79,543.933C1406.3,535.074 1401.32,527.302 1394.87,520.619C1388.42,513.936 1380.85,508.768 1372.14,505.115C1363.44,501.463 1353.88,499.636 1343.47,499.636C1333.05,499.636 1323.49,501.463 1314.79,505.115C1306.09,508.768 1298.55,513.936 1292.17,520.619C1285.8,527.302 1280.83,535.074 1277.25,543.933C1273.68,552.792 1270.6,562.509 1271.89,572.842C1277.66,618.988 1397.02,562.962 1400.59,571.899C1404.16,580.836 1285.8,618.577 1292.17,625.182C1298.55,631.788 1306.09,636.956 1314.79,640.686C1323.49,644.416 1333.05,646.281 1343.47,646.281Z" style="fill:white;fill-rule:nonzero;"/>
        <path d="M1531.14,666.331C1521.2,666.331 1511.83,664.816 1503.05,661.785C1494.27,658.754 1486.61,654.519 1480.09,649.079C1473.56,643.639 1468.74,637.267 1465.63,629.962C1464.08,627.008 1464.04,624.289 1465.52,621.802C1466.99,619.315 1469.44,617.683 1472.86,616.906C1475.5,616.284 1478.07,616.634 1480.55,617.955C1483.04,619.276 1484.9,621.258 1486.15,623.9C1488.17,628.096 1491.35,631.866 1495.71,635.207C1500.06,638.549 1505.3,641.23 1511.44,643.251C1517.58,645.271 1524.15,646.281 1531.14,646.281C1538.91,646.281 1545.95,645.038 1552.24,642.551C1558.54,640.064 1563.59,636.451 1567.4,631.71C1571.2,626.97 1573.11,621.18 1573.11,614.341C1573.11,605.637 1569.77,597.944 1563.08,591.26C1556.4,584.577 1545.68,580.381 1530.91,578.671C1512.1,576.65 1497.34,570.977 1486.61,561.652C1475.89,552.326 1470.53,540.825 1470.53,527.147C1470.53,517.2 1473.25,508.69 1478.69,501.618C1484.13,494.546 1491.59,489.145 1501.07,485.415C1510.55,481.685 1521.27,479.82 1533.24,479.82C1542.26,479.82 1550.3,481.141 1557.37,483.783C1564.44,486.425 1570.58,490.039 1575.79,494.624C1581,499.209 1585.47,504.455 1589.19,510.361C1591.06,513.469 1591.8,516.384 1591.41,519.104C1591.02,521.824 1589.58,523.961 1587.1,525.515C1584.3,527.069 1581.38,527.38 1578.35,526.448C1575.32,525.515 1573.03,523.728 1571.48,521.085C1569.14,516.889 1566.19,513.236 1562.62,510.128C1559.04,507.019 1554.81,504.532 1549.91,502.667C1545.02,500.802 1539.23,499.87 1532.54,499.87C1520.73,499.714 1511.02,502.007 1503.4,506.747C1495.78,511.488 1491.98,518.599 1491.98,528.08C1491.98,533.053 1493.26,537.677 1495.82,541.951C1498.39,546.226 1502.89,549.956 1509.35,553.142C1515.8,556.328 1524.85,558.621 1536.51,560.02C1555.31,562.196 1569.69,567.908 1579.64,577.155C1589.58,586.403 1594.56,598.565 1594.56,613.642C1594.56,622.346 1592.89,629.962 1589.55,636.49C1586.2,643.017 1581.58,648.496 1575.67,652.926C1569.77,657.356 1562.97,660.697 1555.27,662.951C1547.58,665.205 1539.54,666.331 1531.14,666.331Z" style="fill:white;fill-rule:nonzero;"/>
    </g>
</svg>
