<?xml version="1.0" encoding="UTF-8" standalone="no"?>
<!DOCTYPE svg PUBLIC "-//W3C//DTD SVG 1.1//EN" "http://www.w3.org/Graphics/SVG/1.1/DTD/svg11.dtd">
<svg width="100%" height="100%" viewBox="0 0 2560 1440" version="1.1" xmlns="http://www.w3.org/2000/svg" xmlns:xlink="http://www.w3.org/1999/xlink" xml:space="preserve" xmlns:serif="http://www.serif.com/" style="fill-rule:evenodd;clip-rule:evenodd;stroke-linejoin:round;stroke-miterlimit:2;">
    <g transform="matrix(1.73511,0,0,1.73511,-541.633,-274.148)">
        <path d="M511.223,664C509.475,664 508.029,663.428 506.886,662.285C505.743,661.142 505.172,659.697 505.172,657.949L505.172,512.511C505.172,510.629 505.743,509.149 506.886,508.074C508.029,506.998 509.475,506.46 511.223,506.46L551.566,506.46C561.383,506.46 570.091,508.611 577.689,512.915C585.286,517.218 591.237,523.169 595.54,530.767C599.844,538.365 601.995,547.072 601.995,556.889C601.995,566.706 599.844,575.447 595.54,583.112C591.237,590.777 585.286,596.761 577.689,601.065C570.091,605.368 561.383,607.52 551.566,607.52L517.275,607.52L517.275,657.949C517.275,659.697 516.737,661.142 515.661,662.285C514.585,663.428 513.106,664 511.223,664ZM517.275,595.417L551.566,595.417C559.097,595.417 565.72,593.769 571.435,590.475C577.151,587.18 581.656,582.641 584.95,576.859C588.245,571.076 589.892,564.42 589.892,556.889C589.892,549.358 588.245,542.735 584.95,537.02C581.656,531.304 577.151,526.799 571.435,523.505C565.72,520.21 559.097,518.563 551.566,518.563L517.275,518.563L517.275,595.417Z" style="fill:white;fill-rule:nonzero;"/>
        <path d="M672.999,665.21C662.241,665.21 652.592,662.756 644.053,657.848C635.514,652.939 628.79,646.215 623.881,637.676C618.973,629.137 616.519,619.555 616.519,608.932C616.519,598.173 618.973,588.525 623.881,579.985C628.79,571.446 635.514,564.722 644.053,559.814C652.592,554.905 662.241,552.451 672.999,552.451C683.758,552.451 693.373,554.905 701.845,559.814C710.317,564.722 717.007,571.446 721.915,579.985C726.824,588.525 729.278,598.173 729.278,608.932C729.278,619.555 726.79,629.137 721.815,637.676C716.839,646.215 710.149,652.939 701.744,657.848C693.339,662.756 683.758,665.21 672.999,665.21ZM672.999,653.914C681.471,653.914 689.036,651.931 695.692,647.964C702.349,643.996 707.594,638.617 711.426,631.826C715.259,625.035 717.175,617.404 717.175,608.932C717.175,600.325 715.259,592.626 711.426,585.835C707.594,579.044 702.315,573.665 695.592,569.698C688.868,565.731 681.337,563.747 672.999,563.747C664.662,563.747 657.131,565.731 650.407,569.698C643.683,573.665 638.371,579.078 634.472,585.936C630.572,592.794 628.622,600.459 628.622,608.932C628.622,617.404 630.572,625.035 634.472,631.826C638.371,638.617 643.683,643.996 650.407,647.964C657.131,651.931 664.662,653.914 672.999,653.914Z" style="fill:white;fill-rule:nonzero;"/>
        <path d="M763.166,596.627C763.973,588.02 766.327,580.389 770.226,573.732C774.126,567.075 779.169,561.864 785.355,558.099C791.541,554.334 798.399,552.451 805.93,552.451C811.04,552.451 815.007,553.056 817.831,554.266C820.655,555.477 821.731,557.628 821.059,560.721C820.655,562.739 819.714,563.949 818.235,564.352C816.756,564.756 814.974,564.789 812.889,564.453C810.805,564.117 808.485,563.949 805.93,563.949C799.206,563.949 793.222,565.361 787.977,568.185C782.733,571.009 778.631,574.875 775.673,579.784C772.714,584.692 771.235,590.306 771.235,596.627L763.166,596.627ZM765.184,664C763.435,664 761.99,663.428 760.847,662.285C759.704,661.142 759.132,659.697 759.132,657.949L759.132,559.713C759.132,557.83 759.704,556.351 760.847,555.275C761.99,554.199 763.435,553.661 765.184,553.661C767.066,553.661 768.545,554.199 769.621,555.275C770.697,556.351 771.235,557.83 771.235,559.713L771.235,657.949C771.235,659.697 770.697,661.142 769.621,662.285C768.545,663.428 767.066,664 765.184,664Z" style="fill:white;fill-rule:nonzero;"/>
        <path d="M896.702,664C889.306,663.866 882.717,662.151 876.934,658.856C871.152,655.562 866.647,650.989 863.419,645.14C860.192,639.29 858.578,632.667 858.578,625.271L858.578,524.816C858.578,523.068 859.116,521.588 860.192,520.378C861.268,519.168 862.814,518.563 864.831,518.563C866.579,518.563 868.025,519.168 869.168,520.378C870.311,521.588 870.883,523.068 870.883,524.816L870.883,625.271C870.883,632.936 873.303,639.256 878.145,644.232C882.986,649.207 889.239,651.695 896.904,651.695L901.342,651.695C903.09,651.695 904.569,652.267 905.78,653.41C906.99,654.553 907.595,655.999 907.595,657.747C907.595,659.629 907.024,661.142 905.88,662.285C904.737,663.428 903.225,664 901.342,664L896.702,664ZM842.844,568.588C841.365,568.588 840.087,568.084 839.012,567.075C837.936,566.067 837.398,564.823 837.398,563.344C837.398,561.596 837.936,560.217 839.012,559.209C840.087,558.2 841.365,557.696 842.844,557.696L897.509,557.696C898.989,557.696 900.266,558.2 901.342,559.209C902.418,560.217 902.956,561.596 902.956,563.344C902.956,564.823 902.418,566.067 901.342,567.075C900.266,568.084 898.989,568.588 897.509,568.588L842.844,568.588Z" style="fill:white;fill-rule:nonzero;"/>
        <path d="M947.737,664C945.988,664 944.543,663.428 943.4,662.285C942.257,661.142 941.685,659.697 941.685,657.949L941.685,553.46C941.685,544.315 943.097,536.213 945.921,529.153C948.745,522.093 953.149,516.546 959.134,512.511C965.118,508.477 972.749,506.46 982.028,506.46C983.911,506.46 985.39,506.964 986.466,507.973C987.542,508.981 988.08,510.292 988.08,511.906C988.08,513.52 987.542,514.831 986.466,515.84C985.39,516.848 983.911,517.352 982.028,517.352C975.17,517.352 969.69,518.933 965.588,522.093C961.487,525.253 958.528,529.556 956.713,535.003C954.897,540.449 953.99,546.601 953.99,553.46L953.99,657.949C953.99,659.697 953.418,661.142 952.275,662.285C951.132,663.428 949.619,664 947.737,664ZM925.951,568.588C924.337,568.588 923.026,568.084 922.018,567.075C921.009,566.067 920.505,564.756 920.505,563.142C920.505,561.528 921.009,560.217 922.018,559.209C923.026,558.2 924.337,557.696 925.951,557.696L980.616,557.696C982.23,557.696 983.541,558.2 984.55,559.209C985.558,560.217 986.063,561.528 986.063,563.142C986.063,564.756 985.558,566.067 984.55,567.075C983.541,568.084 982.23,568.588 980.616,568.588L925.951,568.588Z" style="fill:white;fill-rule:nonzero;"/>
        <path d="M1052.83,665.21C1042.07,665.21 1032.42,662.756 1023.88,657.848C1015.35,652.939 1008.62,646.215 1003.71,637.676C998.804,629.137 996.35,619.555 996.35,608.932C996.35,598.173 998.804,588.525 1003.71,579.985C1008.62,571.446 1015.35,564.722 1023.88,559.814C1032.42,554.905 1042.07,552.451 1052.83,552.451C1063.59,552.451 1073.2,554.905 1081.68,559.814C1090.15,564.722 1096.84,571.446 1101.75,579.985C1106.65,588.525 1109.11,598.173 1109.11,608.932C1109.11,619.555 1106.62,629.137 1101.65,637.676C1096.67,646.215 1089.98,652.939 1081.58,657.848C1073.17,662.756 1063.59,665.21 1052.83,665.21ZM1052.83,653.914C1061.3,653.914 1068.87,651.931 1075.52,647.964C1082.18,643.996 1087.42,638.617 1091.26,631.826C1095.09,625.035 1097.01,617.404 1097.01,608.932C1097.01,600.325 1095.09,592.626 1091.26,585.835C1087.42,579.044 1082.15,573.665 1075.42,569.698C1068.7,565.731 1061.17,563.747 1052.83,563.747C1044.49,563.747 1036.96,565.731 1030.24,569.698C1023.51,573.665 1018.2,579.078 1014.3,585.936C1010.4,592.794 1008.45,600.459 1008.45,608.932C1008.45,617.404 1010.4,625.035 1014.3,631.826C1018.2,638.617 1023.51,643.996 1030.24,647.964C1036.96,651.931 1044.49,653.914 1052.83,653.914Z" style="fill:white;fill-rule:nonzero;"/>
        <path d="M1161.15,664C1156.04,664 1151.5,662.588 1147.54,659.764C1143.57,656.94 1140.48,653.04 1138.26,648.064C1136.04,643.089 1134.93,637.306 1134.93,630.717L1134.93,512.511C1134.93,510.629 1135.5,509.149 1136.64,508.074C1137.79,506.998 1139.23,506.46 1140.98,506.46C1142.86,506.46 1144.34,506.998 1145.42,508.074C1146.49,509.149 1147.03,510.629 1147.03,512.511L1147.03,630.717C1147.03,636.903 1148.34,641.979 1150.96,645.946C1153.59,649.913 1156.98,651.897 1161.15,651.897L1166.19,651.897C1167.67,651.897 1168.88,652.435 1169.83,653.511C1170.77,654.587 1171.24,656.066 1171.24,657.949C1171.24,659.697 1170.7,661.142 1169.62,662.285C1168.55,663.428 1167.07,664 1165.19,664L1161.15,664Z" style="fill:white;fill-rule:nonzero;"/>
        <path d="M1205.93,664C1204.18,664 1202.74,663.428 1201.6,662.285C1200.45,661.142 1199.88,659.697 1199.88,657.949L1199.88,559.713C1199.88,557.83 1200.45,556.351 1201.6,555.275C1202.74,554.199 1204.18,553.661 1205.93,553.661C1207.82,553.661 1209.3,554.199 1210.37,555.275C1211.45,556.351 1211.99,557.83 1211.99,559.713L1211.99,657.949C1211.99,659.697 1211.45,661.142 1210.37,662.285C1209.3,663.428 1207.82,664 1205.93,664ZM1205.73,530.464C1203.18,530.464 1200.99,529.556 1199.18,527.741C1197.36,525.925 1196.45,523.673 1196.45,520.983C1196.45,517.89 1197.43,515.571 1199.38,514.024C1201.33,512.478 1203.51,511.704 1205.93,511.704C1208.22,511.704 1210.34,512.478 1212.29,514.024C1214.24,515.571 1215.21,517.89 1215.21,520.983C1215.21,523.673 1214.3,525.925 1212.49,527.741C1210.67,529.556 1208.42,530.464 1205.73,530.464Z" style="fill:white;fill-rule:nonzero;"/>
        <path d="M1343.47,666.331C1329.79,666.331 1317.28,664.039 1305.93,659.454C1294.59,654.869 1284.83,648.38 1276.67,639.987C1268.51,631.594 1262.14,621.724 1257.55,610.378C1252.97,599.032 1250.68,586.52 1250.68,572.842C1250.68,559.32 1252.97,546.886 1257.55,535.54C1262.14,524.194 1268.51,514.324 1276.67,505.931C1284.83,497.538 1294.59,491.049 1305.93,486.464C1317.28,481.879 1329.79,479.586 1343.47,479.586C1356.99,479.586 1369.42,481.879 1380.77,486.464C1392.12,491.049 1401.91,497.538 1410.14,505.931C1418.38,514.324 1424.79,524.194 1429.38,535.54C1433.96,546.886 1436.26,559.32 1436.26,572.842C1436.26,586.52 1433.96,599.032 1429.38,610.378C1424.79,621.724 1418.38,631.594 1410.14,639.987C1401.91,648.38 1392.12,654.869 1380.77,659.454C1369.42,664.039 1356.99,666.331 1343.47,666.331ZM1343.47,646.281C1353.88,646.281 1363.44,644.416 1372.14,640.686C1380.85,636.956 1388.42,631.788 1394.87,625.182C1401.32,618.577 1406.3,610.805 1409.79,601.868C1413.29,592.931 1415.04,583.256 1415.04,572.842C1415.04,562.429 1413.29,552.792 1409.79,543.933C1406.3,535.074 1401.32,527.302 1394.87,520.619C1388.42,513.936 1380.85,508.768 1372.14,505.115C1363.44,501.463 1353.88,499.636 1343.47,499.636C1333.05,499.636 1323.49,501.463 1314.79,505.115C1306.09,508.768 1298.55,513.936 1292.17,520.619C1285.8,527.302 1280.83,535.074 1277.25,543.933C1273.68,552.792 1270.6,562.509 1271.89,572.842C1277.66,618.988 1397.02,562.962 1400.59,571.899C1404.16,580.836 1285.8,618.577 1292.17,625.182C1298.55,631.788 1306.09,636.956 1314.79,640.686C1323.49,644.416 1333.05,646.281 1343.47,646.281Z" style="fill:white;fill-rule:nonzero;"/>
        <path d="M1531.14,666.331C1521.2,666.331 1511.83,664.816 1503.05,661.785C1494.27,658.754 1486.61,654.519 1480.09,649.079C1473.56,643.639 1468.74,637.267 1465.63,629.962C1464.08,627.008 1464.04,624.289 1465.52,621.802C1466.99,619.315 1469.44,617.683 1472.86,616.906C1475.5,616.284 1478.07,616.634 1480.55,617.955C1483.04,619.276 1484.9,621.258 1486.15,623.9C1488.17,628.096 1491.35,631.866 1495.71,635.207C1500.06,638.549 1505.3,641.23 1511.44,643.251C1517.58,645.271 1524.15,646.281 1531.14,646.281C1538.91,646.281 1545.95,645.038 1552.24,642.551C1558.54,640.064 1563.59,636.451 1567.4,631.71C1571.2,626.97 1573.11,621.18 1573.11,614.341C1573.11,605.637 1569.77,597.944 1563.08,591.26C1556.4,584.577 1545.68,580.381 1530.91,578.671C1512.1,576.65 1497.34,570.977 1486.61,561.652C1475.89,552.326 1470.53,540.825 1470.53,527.147C1470.53,517.2 1473.25,508.69 1478.69,501.618C1484.13,494.546 1491.59,489.145 1501.07,485.415C1510.55,481.685 1521.27,479.82 1533.24,479.82C1542.26,479.82 1550.3,481.141 1557.37,483.783C1564.44,486.425 1570.58,490.039 1575.79,494.624C1581,499.209 1585.47,504.455 1589.19,510.361C1591.06,513.469 1591.8,516.384 1591.41,519.104C1591.02,521.824 1589.58,523.961 1587.1,525.515C1584.3,527.069 1581.38,527.38 1578.35,526.448C1575.32,525.515 1573.03,523.728 1571.48,521.085C1569.14,516.889 1566.19,513.236 1562.62,510.128C1559.04,507.019 1554.81,504.532 1549.91,502.667C1545.02,500.802 1539.23,499.87 1532.54,499.87C1520.73,499.714 1511.02,502.007 1503.4,506.747C1495.78,511.488 1491.98,518.599 1491.98,528.08C1491.98,533.053 1493.26,537.677 1495.82,541.951C1498.39,546.226 1502.89,549.956 1509.35,553.142C1515.8,556.328 1524.85,558.621 1536.51,560.02C1555.31,562.196 1569.69,567.908 1579.64,577.155C1589.58,586.403 1594.56,598.565 1594.56,613.642C1594.56,622.346 1592.89,629.962 1589.55,636.49C1586.2,643.017 1581.58,648.496 1575.67,652.926C1569.77,657.356 1562.97,660.697 1555.27,662.951C1547.58,665.205 1539.54,666.331 1531.14,666.331Z" style="fill:white;fill-rule:nonzero;"/>
    </g>
</svg>
